<svg width="142" height="128" viewBox="0 0 142 128" fill="none" xmlns="http://www.w3.org/2000/svg">
<path d="M87.2564 125.748C86.8696 124.56 85.1566 119.311 83.4437 114.062C81.7308 108.812 80.2388 104.281 80.1283 103.977C79.9902 103.673 79.2442 101.38 78.443 98.8662C77.6694 96.3521 75.8736 90.8264 74.4646 86.5717C73.0555 82.317 70.6519 74.9127 69.1047 70.133C67.5299 65.3534 66.1762 61.2368 66.038 61.0158C65.9275 60.7671 65.7341 60.1593 65.6236 59.6344C65.5131 59.1094 65.3197 58.5016 65.1815 58.253C65.071 58.0319 64.5185 56.3466 63.9383 54.5232C62.0319 48.3897 56.3682 31.3708 56.1195 31.0669C55.9814 30.9012 55.788 30.4591 55.6775 30.0723C55.4288 29.1882 53.9093 24.9335 53.4672 23.856C53.2738 23.414 52.7213 21.922 52.224 20.5406C51.7267 19.1869 51.2294 17.8055 51.0912 17.5016C50.9531 17.1976 50.4005 15.761 49.8756 14.3243C49.323 12.8877 48.8257 11.5063 48.7152 11.2852C48.6047 11.0366 48.4389 11.4234 48.3284 12.2522C48.2179 13.0258 47.914 14.6006 47.6653 15.761C47.0299 18.9382 46.4221 21.9773 46.0353 23.9941C45.8419 24.9888 45.6209 25.9834 45.538 26.2044C45.4275 26.4254 45.2065 27.3648 45.0407 28.2765C44.8749 29.1882 44.5434 30.8183 44.3224 31.8681C44.1013 32.9456 43.7422 34.7415 43.5211 35.8742C43.3001 37.007 42.9409 38.8857 42.6923 40.0184C42.4436 41.1512 42.0845 42.8917 41.9187 43.8864C41.7253 44.881 41.5043 45.8203 41.4214 45.9585C41.3109 46.1242 41.1451 46.8702 41.0346 47.6438C40.9241 48.6384 40.5926 49.3843 40.0124 50.1027C39.2112 51.0697 39.073 51.1249 37.9403 50.9868C36.6694 50.8486 36.0892 50.3513 35.7853 49.1357C35.5919 48.3345 34.1 44.135 33.575 42.9194C33.354 42.4773 32.6909 40.5434 32.0555 38.637C31.42 36.7307 30.7293 34.9349 30.5359 34.631C30.3426 34.327 30.0939 33.6363 29.9834 33.1114C29.8729 32.5865 29.6795 32.0339 29.569 31.8681C29.4585 31.73 28.823 29.9894 28.1876 28.0555C27.4969 25.9834 26.889 24.5743 26.6956 24.6296C26.5299 24.6849 26.2812 25.1822 26.1431 25.7347C26.0049 26.2873 25.7839 26.757 25.6734 26.757C25.5629 26.757 25.3971 27.1161 25.2866 27.5858C25.1761 28.0278 25.0103 28.4146 24.8722 28.4146C24.7341 28.4146 24.5683 28.8014 24.4578 29.2435C24.3473 29.6855 24.1815 30.0723 24.0434 30.0723C23.9328 30.0723 23.7671 30.4591 23.6566 30.9288C23.2974 32.7522 23.6842 32.697 11.7212 32.7799C-0.683767 32.8628 0.00693473 33.0009 0.00693473 30.4867C0.00693473 28.0278 -0.517998 28.1384 10.3951 28.1384C19.0427 28.1384 19.8991 28.0831 19.8991 27.6963C19.8991 27.4477 20.3412 26.3149 20.8661 25.2098C21.3911 24.1047 21.8331 22.9995 21.8331 22.7785C21.8331 22.5299 21.9436 22.3365 22.0818 22.3365C22.2199 22.3365 22.4133 21.9497 22.5238 21.5076C22.6343 21.0379 22.8001 20.6788 22.9382 20.6788C23.0764 20.6788 23.2421 20.292 23.3526 19.8499C23.6013 18.7724 24.8722 16.2307 25.48 15.6228C26.0878 14.9874 27.8837 15.0427 28.6572 15.6781C28.9888 15.9544 29.3479 16.5069 29.4585 16.9214C29.5413 17.3082 29.7347 17.7226 29.8729 17.8055C30.011 17.8883 30.1215 18.2199 30.1215 18.5514C30.1492 18.883 30.3702 19.6565 30.6741 20.2644C30.978 20.8722 31.199 21.5076 31.2266 21.6734C31.2266 21.9497 31.8068 23.3311 32.3594 24.3257C32.4975 24.602 32.6081 25.044 32.6081 25.2927C32.6357 25.5689 32.8567 26.2873 33.1606 26.8951C33.4645 27.5029 33.6855 28.2212 33.7132 28.4699C33.7132 28.7185 33.8237 28.9948 33.9618 29.0777C34.1 29.1606 34.2934 29.6855 34.4039 30.2381C34.4868 30.7907 34.6802 31.4537 34.8183 31.7024C35.3432 32.6417 35.8958 34.106 36.0616 35.0454C36.1721 35.5703 36.3655 36.1505 36.476 36.2886C36.5865 36.4544 36.7799 36.9793 36.8904 37.4766C36.9733 37.9463 37.1943 38.3607 37.3325 38.3607C37.4706 38.3607 37.5811 38.637 37.5811 38.9686C37.5811 40.2394 38.0232 39.0514 38.3271 36.8965C38.9901 32.3655 39.2664 30.763 39.4874 30.3486C39.6256 30.0999 39.819 29.2435 39.9295 28.4146C40.04 27.5858 40.2334 26.7846 40.3439 26.6188C40.4544 26.4807 40.6478 25.5137 40.7583 24.4915C40.8412 23.4416 41.0346 22.6127 41.1728 22.6127C41.2833 22.6127 41.4767 21.7839 41.5872 20.7617C41.6977 19.7671 41.8911 18.7172 42.0292 18.4962C42.1674 18.2475 42.3884 17.3082 42.5265 16.3964C42.6923 15.4847 42.9962 13.7994 43.2172 12.6666C43.4659 11.5339 43.7698 9.84858 43.9356 8.93685C44.1013 8.02513 44.35 7.03052 44.4881 6.72661C44.6263 6.4227 44.8197 5.48335 44.9302 4.6545C45.0131 3.82566 45.2065 3.02445 45.317 2.85868C45.4275 2.72054 45.5932 2.22323 45.7038 1.78118C45.98 0.70369 46.5326 0.206385 47.7482 0.0406168C48.4942 -0.0698954 48.9362 0.0406168 49.3507 0.42741C49.9308 0.952343 50.8426 2.5824 50.8426 3.10733C50.8426 3.2731 51.036 3.77041 51.257 4.18483C51.478 4.59925 51.7267 5.37283 51.8372 5.89777C51.9201 6.4227 52.1135 6.86475 52.2516 6.86475C52.3897 6.86475 52.5003 7.08577 52.5003 7.36205C52.5003 7.61071 52.666 8.16327 52.8871 8.57769C53.1081 8.99211 53.3567 9.68281 53.4672 10.1525C53.5778 10.6222 53.7712 11.0642 53.9093 11.1471C54.0474 11.2576 54.1579 11.5339 54.1579 11.7825C54.1856 12.0312 54.4066 12.7495 54.7105 13.3573C55.0144 13.9652 55.2354 14.794 55.2631 15.2361C55.2631 15.6505 55.4012 15.982 55.5393 15.982C55.7051 15.982 55.8156 16.203 55.8156 16.4793C55.8156 16.7556 56.009 17.2253 56.23 17.5292C56.4511 17.8055 56.6445 18.2475 56.6445 18.4685C56.6445 18.6896 56.8931 19.3803 57.197 19.9881C57.5009 20.5959 57.722 21.259 57.7496 21.4524C57.7496 21.6181 57.8877 21.7839 58.0259 21.7839C58.1916 21.7839 58.3022 22.0326 58.3022 22.3641C58.3022 22.8614 59.0481 24.7954 59.6559 25.9281C59.7941 26.1768 59.9875 26.757 60.098 27.2543L60.2914 28.1384H66.1762H72.0609L72.6411 29.6026C72.945 30.3762 73.3318 31.5366 73.47 32.1444C74.0225 34.4376 74.4093 35.7361 74.6303 36.0124C74.7409 36.1781 74.9066 36.7583 75.0171 37.3385C75.1276 37.8911 75.321 38.416 75.4316 38.4989C75.5697 38.5818 75.7355 39.1343 75.846 39.7421C75.9565 40.35 76.1499 40.9025 76.288 41.013C76.4262 41.0959 76.5367 41.4275 76.5367 41.759C76.5367 42.0905 76.7301 42.726 76.9511 43.168C77.1721 43.5824 77.3655 44.135 77.3655 44.356C77.3655 44.5771 77.5313 45.1572 77.7523 45.6269C77.9457 46.1242 78.5812 48.0029 79.1337 49.8264C79.7139 51.6498 80.2665 53.3352 80.4046 53.5562C80.5151 53.8048 80.7085 54.4126 80.819 54.9376C80.9295 55.4625 81.1229 56.0427 81.2334 56.1808C81.344 56.3466 81.5374 56.8992 81.6479 57.4241C81.7584 57.949 81.9518 58.5569 82.0623 58.8055C82.1728 59.0265 82.5596 60.1593 82.8911 61.292C83.2227 62.4248 83.5818 63.5575 83.6923 63.7786C83.8305 64.0272 84.0239 64.635 84.1344 65.16C84.2449 65.6849 84.4383 66.2651 84.5488 66.4032C84.6593 66.569 84.8527 67.1216 84.9632 67.6465C85.0737 68.1714 85.2671 68.7792 85.3777 69.0279C85.4882 69.2489 85.875 70.3817 86.2065 71.5144C86.538 72.6472 86.8972 73.7799 87.0353 74.0286C87.1735 74.2772 87.3669 74.9403 87.4498 75.4929C87.5603 76.0454 87.7537 76.5427 87.8642 76.6256C88.0023 76.7085 88.1681 77.2611 88.2786 77.8689C88.3891 78.4767 88.5825 79.0293 88.7207 79.1398C88.8588 79.2227 88.9693 79.5542 88.9693 79.8857C88.9693 80.2173 89.1627 80.8527 89.3837 81.2948C89.6048 81.7092 89.7981 82.2617 89.7981 82.4828C89.7981 82.7038 89.9639 83.284 90.1849 83.7537C90.3783 84.251 91.0138 86.1297 91.5663 87.9531C92.1465 89.7766 92.6991 91.4619 92.8372 91.6829C92.9477 91.9316 93.1411 92.5394 93.2517 93.0643C93.3622 93.5892 93.5556 94.1971 93.6937 94.4457C93.8318 94.6667 94.0529 95.3851 94.2186 96.0481C94.4949 97.1809 94.9646 97.5677 95.158 96.877C95.2409 96.6836 95.7382 95.0259 96.2907 93.2025C96.8433 91.379 97.3959 89.6937 97.5064 89.4727C97.6445 89.224 97.8379 88.6162 97.9484 88.0913C98.0589 87.5663 98.2523 87.0138 98.3628 86.848C98.4734 86.7099 98.6668 86.1297 98.7773 85.6047C98.8878 85.0798 99.0812 84.5272 99.1917 84.3615C99.3022 84.2233 99.4956 83.6431 99.6061 83.1182C99.7166 82.5933 99.91 81.9855 100.021 81.7368C100.159 81.5158 100.905 79.2779 101.706 76.7638C102.479 74.2496 103.308 71.8183 103.502 71.321C103.723 70.8513 103.888 70.2712 103.888 70.0501C103.888 69.8291 104.082 69.2765 104.303 68.8621C104.524 68.4201 104.717 67.8675 104.717 67.6189C104.717 67.3702 104.911 66.79 105.132 66.3756C105.353 65.9336 105.546 65.381 105.546 65.1323C105.546 64.8837 105.74 64.3035 105.961 63.8891C106.182 63.447 106.375 62.8116 106.375 62.48C106.375 62.1485 106.486 61.817 106.624 61.7341C106.762 61.6236 106.955 61.071 107.066 60.4632C107.176 59.8554 107.342 59.3028 107.48 59.2199C107.618 59.137 107.784 58.5845 107.895 57.9767C108.005 57.3689 108.171 56.8163 108.309 56.7334C108.419 56.6505 108.613 56.1532 108.723 55.6007C108.806 55.0481 109 54.385 109.138 54.1364C109.276 53.8877 109.663 52.755 109.994 51.6222C110.326 50.4895 110.768 49.1633 110.961 48.666C111.182 48.1963 111.348 47.5609 111.348 47.257C111.348 46.9254 111.459 46.6215 111.597 46.5386C111.735 46.4281 111.928 45.8756 112.039 45.2678C112.149 44.6599 112.315 44.1074 112.453 44.0245C112.591 43.9416 112.757 43.389 112.868 42.7812C112.978 42.1734 113.144 41.6209 113.282 41.538C113.393 41.4551 113.586 40.9578 113.696 40.4052C113.779 39.8527 113.973 39.1896 114.111 38.9409C114.249 38.6923 114.802 37.007 115.354 35.1835C116.376 31.8405 116.901 30.2933 117.509 28.8843L117.841 28.1107L129.334 28.1936L140.855 28.2765L141.435 28.9672C142.236 29.9618 142.181 31.3708 141.297 32.1721C140.634 32.8075 140.413 32.8351 136.821 32.8351C132.622 32.8351 132.622 32.8351 132.207 34.7691C132.097 35.294 131.903 35.8742 131.793 36.0124C131.682 36.1781 131.489 36.7307 131.378 37.2556C131.268 37.7806 131.074 38.3607 130.964 38.4989C130.853 38.6646 130.66 39.2172 130.55 39.7421C130.439 40.2671 130.246 40.8473 130.135 40.9854C130.025 41.1512 129.831 41.7037 129.721 42.2287C129.61 42.7536 129.417 43.3614 129.306 43.6101C129.168 43.8311 128.063 47.2017 126.82 51.0697C125.576 54.9376 124.444 58.3082 124.333 58.5292C124.223 58.7779 124.029 59.3857 123.919 59.9106C123.808 60.4356 123.615 61.0158 123.504 61.1539C123.394 61.3197 123.2 61.8722 123.09 62.3972C122.979 62.9221 122.786 63.5023 122.676 63.6404C122.565 63.8062 122.372 64.3588 122.261 64.8837C122.151 65.4086 121.957 65.9888 121.847 66.1269C121.736 66.2927 121.543 66.8453 121.432 67.3702C121.322 67.8951 121.128 68.4753 121.018 68.6135C120.907 68.7792 120.714 69.3318 120.603 69.8567C120.493 70.3817 120.3 70.9619 120.189 71.1C120.079 71.2658 119.885 71.8183 119.775 72.3433C119.664 72.8682 119.471 73.476 119.333 73.7247C119.222 73.9457 118.283 76.7638 117.288 79.941C116.266 83.1458 115.326 85.9639 115.188 86.2126C115.05 86.4612 114.857 87.1795 114.774 87.815C114.663 88.4228 114.498 88.9201 114.387 88.9201C114.249 88.9201 114.083 89.4174 113.973 90.0529C113.862 90.6607 113.614 91.5171 113.393 91.9039C113.171 92.3184 113.006 92.8433 113.006 93.0919C113.006 93.3406 112.812 93.9208 112.591 94.3352C112.37 94.7773 112.177 95.4127 112.177 95.7442C112.177 96.0758 112.066 96.4073 111.928 96.4902C111.79 96.6007 111.597 97.1533 111.486 97.7611C111.376 98.3689 111.21 98.9215 111.072 99.0043C110.934 99.0872 110.768 99.6398 110.657 100.248C110.547 100.855 110.381 101.408 110.243 101.491C110.132 101.574 109.939 102.071 109.828 102.624C109.746 103.176 109.552 103.839 109.414 104.088C109.276 104.337 107.977 108.26 106.513 112.818C105.049 117.377 103.723 121.3 103.612 121.549C103.474 121.797 103.281 122.461 103.198 123.013C103.087 123.566 102.894 124.063 102.783 124.146C102.645 124.229 102.479 124.781 102.369 125.389C102.258 125.997 102.065 126.55 101.927 126.66C101.789 126.743 101.678 127.047 101.678 127.351C101.678 127.848 101.43 127.876 94.8265 127.876H87.9747L87.2564 125.748Z" fill="#0B74BC"/>
</svg>
